<?xml version="1.0" encoding="UTF-8"?>
<svg xmlns="http://www.w3.org/2000/svg" xmlns:xlink="http://www.w3.org/1999/xlink" width="961px" height="1024px" viewBox="0 0 961 1024" version="1.1">
<g id="surface1">
<path style=" stroke:none;fill-rule:evenodd;fill:rgb(61.960787%,83.92157%,26.666668%);fill-opacity:1;" d="M 524.273438 377.636719 C 517.457031 386.140625 511.347656 395.300781 505.949219 405.121094 C 523.242188 459.289062 527.996094 514.589844 520.203125 571.039062 C 499.246094 566.765625 478.207031 566.085938 457.085938 569.003906 C 467.609375 498.742188 459.464844 430.882812 432.652344 365.421875 C 403.535156 300.636719 362.136719 244.65625 308.457031 197.472656 C 289.707031 180.753906 270.363281 164.808594 250.429688 149.628906 C 244.441406 137.289062 248.171875 132.878906 261.628906 136.398438 C 300.636719 159.800781 337.964844 185.589844 373.609375 213.757812 C 392.335938 231.800781 410.320312 250.460938 427.5625 269.742188 C 446.253906 296.285156 464.917969 322.75 483.554688 349.136719 C 506.023438 324.292969 527.402344 298.503906 547.6875 271.777344 C 570.550781 247.554688 594.644531 224.820312 619.96875 203.578125 C 638.84375 192.164062 657.167969 179.949219 674.941406 166.933594 C 681.457031 163.914062 688.246094 163.234375 695.300781 164.898438 C 697.445312 167.722656 697.785156 170.777344 696.316406 174.058594 C 624.109375 229.691406 566.761719 297.550781 524.273438 377.636719 Z M 524.273438 377.636719 "/>
<path style=" stroke:none;fill-rule:evenodd;fill:rgb(41.568628%,65.882355%,15.294118%);fill-opacity:1;" d="M 524.273438 377.636719 C 566.761719 297.550781 624.109375 229.691406 696.316406 174.058594 C 697.785156 170.777344 697.445312 167.722656 695.300781 164.898438 C 688.246094 163.234375 681.457031 163.914062 674.941406 166.933594 C 657.167969 179.949219 638.84375 192.164062 619.96875 203.578125 C 594.644531 224.820312 570.550781 247.554688 547.6875 271.777344 C 527.402344 298.503906 506.023438 324.292969 483.554688 349.136719 C 464.917969 322.75 446.253906 296.285156 427.5625 269.742188 C 410.320312 250.460938 392.335938 231.800781 373.609375 213.757812 C 337.964844 185.589844 300.636719 159.800781 261.628906 136.398438 C 248.171875 132.878906 244.441406 137.289062 250.429688 149.628906 C 270.363281 164.808594 289.707031 180.753906 308.457031 197.472656 C 362.136719 244.65625 403.535156 300.636719 432.652344 365.421875 C 314.148438 366.417969 222.867188 317.558594 158.808594 218.847656 C 121.957031 152.800781 109.402344 82.566406 121.144531 8.144531 C 209.730469 5.335938 291.171875 27.726562 365.464844 75.324219 C 397.332031 99.375 423.800781 128.214844 444.871094 161.84375 C 437.808594 175.632812 431.019531 189.542969 424.507812 203.578125 C 435.234375 210.839844 445.074219 219.324219 454.03125 229.027344 C 463.703125 243.613281 472.867188 258.542969 481.519531 273.8125 C 496.835938 226.878906 519.574219 184.128906 549.722656 145.558594 C 590.828125 101.746094 640.710938 72.226562 699.371094 57.003906 C 739.457031 45.410156 780.175781 39.644531 821.53125 39.699219 C 833.183594 128.585938 811.808594 208.660156 757.398438 279.921875 C 696.660156 352.320312 618.953125 384.894531 524.273438 377.636719 Z M 524.273438 377.636719 "/>
<path style=" stroke:none;fill-rule:evenodd;fill:rgb(81.176472%,42.745098%,8.627451%);fill-opacity:1;" d="M 206.65625 719.648438 C 206.304688 721.667969 206.984375 723.027344 208.691406 723.722656 C 241.558594 779.292969 287.707031 820.351562 347.140625 846.886719 C 372.285156 856.964844 398.074219 864.769531 424.507812 870.296875 C 445.640625 744.648438 519.613281 678.828125 646.433594 672.828125 C 688.238281 671.644531 725.902344 683.179688 759.433594 707.433594 C 806.234375 616.570312 808.949219 524.28125 767.578125 430.570312 C 756.613281 404.203125 741.34375 380.792969 721.769531 360.335938 C 740.265625 347.273438 757.574219 332.683594 773.6875 316.566406 C 786.984375 300.484375 799.539062 283.863281 811.351562 266.6875 C 825.523438 261.007812 838.078125 263.382812 849.019531 273.8125 C 860.457031 290.003906 872.671875 305.613281 885.667969 320.636719 C 893.960938 331.546875 896.675781 343.761719 893.8125 357.28125 C 884.726562 370.597656 875.226562 383.488281 865.308594 395.960938 C 858.027344 431.886719 870.585938 458.011719 902.972656 474.339844 C 921.96875 475.84375 936.558594 484.324219 946.746094 499.785156 C 949.011719 518.667969 950.027344 537.671875 949.800781 556.789062 C 950 576.566406 948.980469 596.242188 946.746094 615.824219 C 942.445312 624.878906 935.996094 632.003906 927.40625 637.199219 C 884.957031 643.683594 863.578125 668.453125 863.269531 711.507812 C 868.851562 726.59375 877.675781 739.484375 889.738281 750.1875 C 898.984375 763.800781 898.984375 777.375 889.738281 790.902344 C 874.015625 811.375 859.085938 832.410156 844.945312 854.011719 C 834.242188 869.714844 819.652344 875.484375 801.171875 871.316406 C 768.507812 852.855469 738.308594 856.585938 710.570312 882.511719 C 697.503906 899.824219 693.773438 919.164062 699.371094 940.53125 C 699.414062 960.839844 689.914062 974.410156 670.867188 981.25 C 638.0625 995.121094 604.46875 1006.316406 570.085938 1014.839844 C 562.148438 1013.757812 555.023438 1010.703125 548.707031 1005.679688 C 541.324219 994.652344 534.199219 983.457031 527.328125 972.085938 C 509.53125 954.398438 488.152344 947.953125 463.195312 952.746094 C 453.597656 955.171875 444.773438 959.242188 436.726562 964.960938 C 426.722656 978.179688 417.21875 991.75 408.222656 1005.679688 C 401.355469 1010.996094 393.550781 1014.050781 384.808594 1014.839844 C 348.214844 1005.128906 312.585938 992.574219 277.917969 977.175781 C 265.695312 969.117188 259.589844 957.582031 259.59375 942.570312 C 268.550781 903.941406 254.300781 877.472656 216.835938 863.171875 C 195.820312 857.152344 176.140625 859.867188 157.792969 871.316406 C 141.027344 875.453125 127.113281 871.042969 116.054688 858.082031 C 99.765625 833.652344 83.476562 809.226562 67.1875 784.796875 C 65.832031 775.972656 65.832031 767.152344 67.1875 758.328125 C 72.394531 747.695312 79.183594 738.195312 87.546875 729.828125 C 99.511719 702.15625 95.777344 676.707031 76.351562 653.488281 C 62.59375 642.75 46.984375 636.640625 29.523438 635.164062 C 19.863281 629.941406 13.757812 622.140625 11.199219 611.753906 C 13.914062 575.789062 13.914062 539.824219 11.199219 503.855469 C 13.140625 494.109375 18.570312 486.980469 27.484375 482.480469 C 71.707031 476.265625 94.441406 450.820312 95.691406 406.140625 C 94.117188 398.914062 91.402344 392.128906 87.546875 385.78125 C 81.441406 378.316406 75.332031 370.851562 69.222656 363.386719 C 66.21875 354.070312 65.539062 344.570312 67.1875 334.886719 C 80.753906 310.472656 97.382812 288.417969 117.070312 268.722656 C 126.015625 263.890625 135.519531 262.53125 145.574219 264.652344 C 170.25 299.84375 200.109375 330.039062 235.160156 355.246094 C 237.363281 357.003906 237.703125 359.042969 236.179688 361.351562 C 175.738281 433.394531 152.664062 516.183594 166.953125 609.71875 C 172.773438 649.246094 186.007812 685.886719 206.65625 719.648438 Z M 206.65625 719.648438 "/>
<path style=" stroke:none;fill-rule:evenodd;fill:rgb(80.784315%,33.725491%,15.686275%);fill-opacity:1;" d="M 11.199219 503.855469 C 13.914062 539.824219 13.914062 575.789062 11.199219 611.753906 C 9.855469 576.300781 9.855469 540.339844 11.199219 503.855469 Z M 11.199219 503.855469 "/>
<path style=" stroke:none;fill-rule:evenodd;fill:rgb(66.274512%,34.901962%,0.392157%);fill-opacity:1;" d="M 520.203125 571.039062 C 578.632812 584.675781 620.710938 618.605469 646.433594 672.828125 C 519.613281 678.828125 445.640625 744.648438 424.507812 870.296875 C 398.074219 864.769531 372.285156 856.964844 347.140625 846.886719 C 287.707031 820.351562 241.558594 779.292969 208.691406 723.722656 C 241.285156 695.570312 279.289062 680.300781 322.707031 677.917969 C 346.238281 623.359375 386.960938 588.75 444.871094 574.089844 C 442.941406 573.109375 440.902344 572.769531 438.761719 573.074219 C 444.296875 570.195312 450.40625 568.839844 457.085938 569.003906 C 478.207031 566.085938 499.246094 566.765625 520.203125 571.039062 Z M 520.203125 571.039062 "/>
<path style=" stroke:none;fill-rule:evenodd;fill:rgb(65.490198%,31.764707%,11.764706%);fill-opacity:1;" d="M 438.761719 573.074219 C 440.902344 572.769531 442.941406 573.109375 444.871094 574.089844 C 386.960938 588.75 346.238281 623.359375 322.707031 677.917969 C 279.289062 680.300781 241.285156 695.570312 208.691406 723.722656 C 206.984375 723.027344 206.304688 721.667969 206.65625 719.648438 C 240.179688 691.703125 278.863281 676.777344 322.707031 674.863281 C 344.226562 621.644531 382.910156 587.71875 438.761719 573.074219 Z M 438.761719 573.074219 "/>
<path style=" stroke:none;fill-rule:evenodd;fill:rgb(66.274512%,34.901962%,0%);fill-opacity:1;" d="M 683.082031 746.117188 C 699.796875 744.835938 706.921875 752.300781 704.460938 768.507812 C 699.929688 777.386719 692.804688 780.441406 683.082031 777.671875 C 674.203125 773.136719 671.152344 766.011719 673.921875 756.292969 C 676.007812 751.84375 679.0625 748.449219 683.082031 746.117188 Z M 683.082031 746.117188 "/>
<path style=" stroke:none;fill-rule:evenodd;fill:rgb(65.882355%,34.901962%,0%);fill-opacity:1;" d="M 589.425781 782.757812 C 616.964844 782.113281 627.484375 795.007812 620.984375 821.4375 C 612.574219 832.871094 601.375 836.601562 587.390625 832.636719 C 573.875 824.457031 569.464844 812.582031 574.15625 797.011719 C 579.035156 791.785156 584.125 787.035156 589.425781 782.757812 Z M 589.425781 782.757812 "/>
<path style=" stroke:none;fill-rule:evenodd;fill:rgb(66.274512%,34.901962%,0%);fill-opacity:1;" d="M 579.246094 900.835938 C 592.726562 899.722656 599.171875 905.832031 598.589844 919.15625 C 590.460938 934.738281 580.957031 935.417969 570.085938 921.191406 C 568.207031 912.066406 571.257812 905.277344 579.246094 900.835938 Z M 579.246094 900.835938 "/>
</g>
</svg>
